<svg width="276" height="276" viewBox="0 0 276 276" fill="none" xmlns="http://www.w3.org/2000/svg">
<path d="M24.8401 267.274H24.9836H25.4252H27.1474L33.8211 267.169L58.7163 267.086L58.5397 267.268C58.5397 260.33 58.5397 252.452 58.4955 243.803V243.582H58.7163L97.6102 243.538L97.3398 243.803C97.3398 236.87 97.3398 229.578 97.3398 222.076V221.794H141.141L140.854 222.081C140.854 213.564 140.854 205.234 140.854 197.159V196.877H141.135L184.964 196.91L184.716 197.159C184.743 181.548 184.76 167.781 184.782 156.416V156.217H184.964L212.498 156.305L219.845 156.349L221.738 156.377H222.219C222.274 156.37 222.329 156.37 222.384 156.377H222.219H221.738H219.845L212.498 156.427L184.964 156.515L185.152 156.327C185.152 167.693 185.191 181.46 185.218 197.07V197.319H184.964L141.135 197.352L141.417 197.07C141.417 205.146 141.417 213.476 141.417 221.993V222.28H133.838H97.6102L97.8862 222.004C97.8862 229.506 97.8862 236.798 97.8862 243.731V243.996H97.6213L58.7274 243.957L58.9537 243.731C58.9537 252.381 58.9206 260.258 58.9095 267.196V267.379H58.7274L33.8322 267.296L27.1585 267.246H25.4362H24.9946C24.9453 267.265 24.8929 267.274 24.8401 267.274Z" fill="#263238"/>
<path d="M35.698 239.711C36.3439 240.016 36.9214 240.449 37.3957 240.983C37.8701 241.517 38.2314 242.141 38.458 242.819C38.9016 244.174 39.0263 245.614 38.8223 247.025C38.5132 249.758 36.962 252.512 35.295 254.692C32.9932 252.689 32.4688 249.172 32.3087 247.395C32.0603 244.563 33.3354 239.292 35.72 239.711" fill="#34786A"/>
<path d="M37.9446 259.197C37.7882 258.417 37.8406 257.61 38.0965 256.857C38.3524 256.103 38.8027 255.431 39.4019 254.908C40.0098 254.397 40.7133 254.012 41.4714 253.775C42.2295 253.538 43.0271 253.454 43.8179 253.528C44.1849 253.523 44.5485 253.599 44.8832 253.75C45.2179 253.9 45.5156 254.122 45.7554 254.4C45.9341 254.694 46.0314 255.029 46.0373 255.373C46.0431 255.716 45.9572 256.055 45.7885 256.354C45.4395 256.947 44.9432 257.439 44.3478 257.784C42.3551 259.031 40.1968 259.876 37.9446 259.197Z" fill="#34786A"/>
<path d="M34.9968 267.571C35.0057 267.385 35.0334 267.2 35.0796 267.019C35.1514 266.627 35.2452 266.12 35.3556 265.507C35.612 263.818 36.1395 262.181 36.9178 260.66C37.7295 259.143 38.9296 257.869 40.3954 256.967C40.8419 256.704 41.3181 256.495 41.814 256.344C41.9477 256.3 42.0842 256.265 42.2225 256.239C42.27 256.23 42.3186 256.23 42.366 256.239C41.7057 256.466 41.0696 256.758 40.4671 257.111C39.0517 258.031 37.8916 259.294 37.0944 260.782C36.3296 262.271 35.7901 263.865 35.4936 265.512C35.3556 266.147 35.2397 266.661 35.1514 267.014C35.1175 267.204 35.0657 267.391 34.9968 267.571Z" fill="#263238"/>
<path d="M35.0796 243.812C35.1011 243.892 35.1123 243.973 35.1127 244.055C35.1127 244.238 35.1127 244.475 35.1514 244.762C35.1845 245.375 35.2231 246.258 35.2563 247.351C35.328 249.559 35.3832 252.562 35.3667 255.901C35.3501 259.241 35.2728 262.266 35.1845 264.452C35.1348 265.556 35.0962 266.428 35.0575 267.041C35.0575 267.328 35.0189 267.56 35.0079 267.742C35.0065 267.825 34.9973 267.908 34.9803 267.99C34.9685 267.908 34.9685 267.824 34.9803 267.742C34.9803 267.56 34.9803 267.328 34.9803 267.035C34.9803 266.4 35.0134 265.523 35.041 264.446C35.0962 262.238 35.1569 259.241 35.1679 255.901C35.179 252.562 35.1679 249.542 35.1127 247.356C35.1127 246.28 35.1127 245.402 35.0741 244.762C35.0741 244.475 35.0741 244.243 35.0741 244.061C35.0711 243.978 35.0729 243.895 35.0796 243.812Z" fill="#263238"/>
<path d="M33.9647 260.858C33.6869 259.204 33.0193 257.641 32.0171 256.297C31.015 254.953 29.7071 253.868 28.2018 253.13C27.4345 252.765 26.4299 252.523 25.8006 253.097C25.1713 253.671 25.3093 254.692 25.6184 255.487C26.2911 257.134 27.4364 258.545 28.9099 259.542C30.3835 260.539 32.1193 261.078 33.8984 261.09" fill="#34786A"/>
<path d="M28.5716 255.713C28.7415 255.77 28.9059 255.842 29.0629 255.928C29.2521 256.015 29.4364 256.113 29.6149 256.221C29.8191 256.353 30.0675 256.475 30.3159 256.662C30.5931 256.849 30.8603 257.049 31.1163 257.264C31.4152 257.508 31.7008 257.768 31.9719 258.042C32.5906 258.674 33.1351 259.374 33.5948 260.129C34.0437 260.891 34.4031 261.702 34.6657 262.547C34.7774 262.909 34.8677 263.278 34.9361 263.651C35.0004 263.981 35.0465 264.314 35.0741 264.65C35.1128 264.953 35.1017 265.235 35.1128 265.478C35.1279 265.685 35.1279 265.894 35.1128 266.102C35.1116 266.287 35.0931 266.472 35.0576 266.654C35.0079 266.654 35.0907 265.892 34.9527 264.683C34.9196 264.354 34.8662 264.028 34.7926 263.706C34.7184 263.333 34.6244 262.965 34.5111 262.602C34.2418 261.775 33.8846 260.979 33.4457 260.228C32.9911 259.488 32.4601 258.798 31.8615 258.169C31.58 257.888 31.3095 257.617 31.0335 257.391C30.7575 257.165 30.4815 256.96 30.2552 256.778C29.2561 256.072 28.555 255.752 28.5716 255.713Z" fill="#263238"/>
<path d="M162.056 44.6465L166.881 42.3391C168.215 38.2532 171.029 34.8142 174.77 32.6981C178.512 30.5819 182.909 29.9416 187.098 30.9031C191.288 31.8646 194.966 34.3583 197.41 37.8941C199.854 41.4298 200.887 45.7519 200.306 50.0106C199.725 54.2694 197.572 58.1569 194.27 60.9089C190.969 63.6609 186.757 65.0784 182.463 64.8828C178.17 64.6871 174.104 62.8925 171.067 59.8517C168.029 56.8108 166.238 52.7437 166.047 48.4497L162.056 44.6465Z" fill="white"/>
<path d="M162.056 44.6467L162.299 44.8951L163.044 45.6238C163.723 46.2862 164.7 47.2522 166.003 48.4997C166.014 48.5101 166.029 48.516 166.044 48.516C166.06 48.516 166.074 48.5101 166.086 48.4997H165.97C166.08 51.3618 166.904 54.151 168.365 56.6141C168.823 57.389 169.339 58.1272 169.911 58.8221C170.532 59.551 171.208 60.2319 171.931 60.859C173.519 62.2375 175.347 63.3116 177.324 64.0274C179.594 64.8449 182.008 65.1812 184.414 65.0149C186.821 64.8486 189.166 64.1833 191.301 63.0614C193.661 61.817 195.696 60.0383 197.246 57.8671C198.89 55.6067 199.948 52.9744 200.326 50.2054L200.464 49.1455L200.497 48.0857V47.5337L200.464 46.9817L200.404 45.9329C200.365 45.5851 200.299 45.2429 200.249 44.8951C200.204 44.5513 200.14 44.2103 200.056 43.8739C199.904 43.2015 199.708 42.5395 199.471 41.8922C198.196 38.3314 195.789 35.2867 192.619 33.2249C189.448 31.163 185.689 30.1977 181.917 30.4769C179.813 30.6341 177.755 31.1747 175.845 32.0722C174.976 32.4813 174.14 32.9575 173.345 33.4963C172.621 34.0207 171.928 34.5865 171.269 35.191C169.196 37.1694 167.653 39.6369 166.781 42.367V42.3338L163.188 44.0947L162.282 44.5473L161.984 44.6964C161.984 44.6964 162.1 44.6522 162.31 44.5529L163.248 44.1168L166.831 42.4608C166.839 42.4584 166.846 42.4542 166.852 42.4484C166.857 42.4426 166.862 42.4355 166.864 42.4277C167.758 39.7376 169.305 37.3116 171.368 35.3676C172.024 34.7764 172.713 34.2235 173.433 33.7116C174.221 33.1851 175.048 32.7183 175.906 32.315C179.03 30.8698 182.518 30.3981 185.914 30.9612C189.31 31.5243 192.459 33.0962 194.95 35.4725C196.861 37.2791 198.338 39.4945 199.272 41.953C199.496 42.5905 199.68 43.2413 199.824 43.9015C199.906 44.2344 199.968 44.5717 200.012 44.9117C200.061 45.2484 200.128 45.5851 200.161 45.9274L200.221 46.9651L200.255 47.484V48.0029L200.221 49.0462L200.089 50.0894C199.715 52.8149 198.677 55.4065 197.064 57.6353C195.538 59.7703 193.537 61.522 191.218 62.7523C189.116 63.8605 186.806 64.5201 184.435 64.6892C182.065 64.8584 179.684 64.5334 177.446 63.7349C175.494 63.0334 173.686 61.9801 172.114 60.6271C171.397 60.0098 170.727 59.34 170.11 58.6234C169.54 57.9482 169.025 57.2283 168.57 56.4706C167.111 54.0357 166.273 51.2794 166.13 48.4445C166.13 48.4367 166.128 48.4291 166.125 48.422C166.122 48.4149 166.118 48.4086 166.112 48.4033C166.106 48.3981 166.099 48.3942 166.092 48.3918C166.085 48.3894 166.077 48.3885 166.069 48.3893C166.057 48.39 166.044 48.3946 166.034 48.4025C166.025 48.4104 166.017 48.4212 166.014 48.4334L166.113 48.4058L163.133 45.6072L162.354 44.8841L162.056 44.6467Z" fill="#263238"/>
<path d="M183.286 58.684C188.899 58.684 193.448 54.1342 193.448 48.5217C193.448 42.9092 188.899 38.3594 183.286 38.3594C177.674 38.3594 173.124 42.9092 173.124 48.5217C173.124 54.1342 177.674 58.684 183.286 58.684Z" fill="#34786A"/>
<path opacity="0.3" d="M183.286 58.684C188.899 58.684 193.448 54.1342 193.448 48.5217C193.448 42.9092 188.899 38.3594 183.286 38.3594C177.674 38.3594 173.124 42.9092 173.124 48.5217C173.124 54.1342 177.674 58.684 183.286 58.684Z" fill="black"/>
<path d="M187.132 56.7964C192.327 54.6721 194.816 48.7387 192.692 43.5438C190.568 38.3488 184.634 35.8595 179.439 37.9838C174.244 40.108 171.755 46.0414 173.879 51.2364C176.004 56.4314 181.937 58.9206 187.132 56.7964Z" fill="#34786A"/>
<path d="M188.103 52.215C190.761 49.557 190.761 45.2476 188.103 42.5897C185.445 39.9317 181.135 39.9317 178.477 42.5897C175.819 45.2476 175.819 49.5571 178.477 52.215C181.135 54.873 185.445 54.873 188.103 52.215Z" fill="white"/>
<path d="M183.286 50.7294C185.124 50.7294 186.615 49.2391 186.615 47.4008C186.615 45.5625 185.124 44.0723 183.286 44.0723C181.448 44.0723 179.958 45.5625 179.958 47.4008C179.958 49.2391 181.448 50.7294 183.286 50.7294Z" fill="#34786A"/>
<path d="M190.368 39.9597L190.092 37.7903L192.3 35.4277L192.46 37.7682L190.368 39.9597Z" fill="#455A64"/>
<path d="M195.104 38.2329L192.869 38.0508L190.622 40.2091L192.869 40.452L195.104 38.2329Z" fill="#455A64"/>
<path opacity="0.3" d="M183.733 47.3522L191.505 41.4016C191.212 40.9807 190.885 40.5838 190.528 40.2148L183.733 46.8223V47.3522Z" fill="black"/>
<path d="M192.549 37.4439L189.386 40.6069L184.368 45.6245L183.214 46.7782C183.169 46.8552 183.15 46.9451 183.161 47.0339C183.173 47.1226 183.213 47.2051 183.276 47.2684C183.339 47.3316 183.422 47.372 183.511 47.3832C183.599 47.3944 183.689 47.3758 183.766 47.3302L186.951 44.1617L191.969 39.1441L193.123 37.9904C193.487 37.6261 192.919 37.063 192.571 37.4384L192.549 37.4439Z" fill="#263238"/>
<path d="M134.213 52.5999L136.344 29.2559C136.675 23.4212 140.351 18.7679 146.169 19.2536L146.721 19.3309C149.318 19.7057 151.678 21.0437 153.332 23.079C154.987 25.1142 155.816 27.6977 155.653 30.3157C155.333 35.372 154.919 40.9472 154.499 43.6244C153.588 49.1279 147.936 49.1941 147.936 49.1941C147.936 49.1941 147.555 52.5779 147.384 54.2173L146.683 58.0261L143.835 56.5854L134.213 52.5999Z" fill="#FFBF9D"/>
<path d="M147.936 49.0014C145.373 48.6232 142.973 47.5178 141.019 45.8164C141.019 45.8164 142.156 50.2324 147.765 50.536L147.936 49.0014Z" fill="#FF9A6C"/>
<path d="M153.163 35.0919C153.134 35.2986 153.026 35.4859 152.861 35.6137C152.696 35.7416 152.487 35.8 152.28 35.7764C152.178 35.7701 152.079 35.7436 151.988 35.6983C151.897 35.653 151.816 35.5899 151.749 35.5127C151.683 35.4355 151.633 35.3458 151.601 35.2489C151.57 35.152 151.559 35.0498 151.568 34.9484C151.596 34.7417 151.703 34.5539 151.867 34.4251C152.031 34.2962 152.238 34.2364 152.446 34.2584C152.548 34.2646 152.648 34.2913 152.74 34.3368C152.832 34.3824 152.914 34.4459 152.98 34.5236C153.047 34.6013 153.098 34.6916 153.129 34.7892C153.161 34.8868 153.172 34.9898 153.163 35.0919Z" fill="#263238"/>
<path d="M154.096 32.3808C153.98 32.4691 153.445 31.9392 152.595 31.8288C151.745 31.7184 151.055 32.0441 150.977 31.9226C150.9 31.8012 151.066 31.7018 151.364 31.5418C151.769 31.3375 152.229 31.266 152.678 31.3375C153.118 31.3917 153.53 31.5851 153.853 31.8895C154.091 32.1379 154.151 32.3366 154.096 32.3808Z" fill="#263238"/>
<path d="M145.728 34.0869C145.715 34.1906 145.682 34.2907 145.63 34.3816C145.578 34.4724 145.509 34.5521 145.427 34.6162C145.344 34.6803 145.25 34.7275 145.149 34.7551C145.048 34.7826 144.943 34.7901 144.839 34.7769C144.737 34.7714 144.638 34.7454 144.546 34.7004C144.454 34.6553 144.373 34.5922 144.306 34.5149C144.24 34.4375 144.19 34.3475 144.159 34.2502C144.128 34.153 144.117 34.0505 144.127 33.9489C144.153 33.7416 144.26 33.553 144.424 33.4239C144.589 33.2948 144.797 33.2355 145.005 33.2589C145.107 33.2645 145.207 33.2905 145.299 33.3354C145.391 33.3803 145.474 33.4432 145.541 33.5204C145.608 33.5975 145.66 33.6874 145.692 33.7847C145.724 33.882 145.736 33.9848 145.728 34.0869Z" fill="#263238"/>
<path d="M145.728 31.3707C145.612 31.459 145.077 30.9291 144.227 30.8187C143.376 30.7083 142.686 31.034 142.609 30.9181C142.532 30.8021 142.698 30.6917 143.001 30.5317C143.406 30.3313 143.863 30.2601 144.309 30.3274C144.751 30.3852 145.163 30.578 145.491 30.8794C145.728 31.1333 145.767 31.3321 145.728 31.3707Z" fill="#263238"/>
<path d="M147.825 38.3592C148.295 38.2884 148.771 38.2718 149.244 38.3095C149.465 38.3095 149.68 38.3095 149.735 38.166C149.785 37.9433 149.768 37.711 149.686 37.4981C149.553 36.9461 149.421 36.3609 149.277 35.7482C148.725 33.2587 148.361 31.2273 148.46 31.2053C148.56 31.1832 149.09 33.1814 149.642 35.6709C149.774 36.2837 149.901 36.8688 150.017 37.4263C150.122 37.7076 150.122 38.0172 150.017 38.2985C149.974 38.3702 149.916 38.4314 149.846 38.4773C149.776 38.5232 149.697 38.5526 149.614 38.5634C149.489 38.5773 149.363 38.5773 149.239 38.5634C148.76 38.5589 148.285 38.4902 147.825 38.3592Z" fill="#263238"/>
<path d="M146.374 28.743C146.225 28.9472 145.43 28.5994 144.425 28.4283C143.42 28.2572 142.559 28.2958 142.493 28.0585C142.46 27.9481 142.659 27.777 143.045 27.65C143.544 27.4999 144.073 27.4715 144.585 27.5672C145.095 27.652 145.578 27.8521 145.998 28.1523C146.313 28.4173 146.44 28.6491 146.374 28.743Z" fill="#263238"/>
<path d="M154.494 29.8803C154.295 30.0514 153.621 29.7589 152.788 29.6429C151.954 29.527 151.226 29.5712 151.093 29.3449C151.033 29.24 151.171 29.0578 151.502 28.9143C151.957 28.7406 152.451 28.6929 152.931 28.7763C153.412 28.8366 153.866 29.0275 154.245 29.3283C154.516 29.5822 154.587 29.8085 154.494 29.8803Z" fill="#263238"/>
<path d="M136.195 33.2087C136.107 33.1535 132.546 31.5527 132.121 35.3394C131.696 39.1261 135.61 38.7894 135.626 38.6845C135.643 38.5797 136.195 33.2087 136.195 33.2087Z" fill="#FFBF9D"/>
<path d="M134.627 37.1107C134.627 37.1107 134.555 37.1493 134.434 37.1879C134.269 37.2373 134.091 37.2215 133.937 37.1438C133.708 36.9597 133.532 36.718 133.427 36.4435C133.323 36.1689 133.293 35.8715 133.341 35.5816C133.369 35.2548 133.469 34.9382 133.633 34.6543C133.682 34.54 133.758 34.4392 133.854 34.3604C133.95 34.2816 134.064 34.2271 134.185 34.2016C134.264 34.1886 134.345 34.2043 134.413 34.2459C134.481 34.2874 134.531 34.3521 134.555 34.4279C134.594 34.5383 134.555 34.6101 134.555 34.6211C134.555 34.6322 134.644 34.5659 134.633 34.4059C134.619 34.3096 134.575 34.2203 134.506 34.1519C134.459 34.1062 134.404 34.0703 134.343 34.0466C134.282 34.0229 134.218 34.0118 134.152 34.0139C133.992 34.026 133.837 34.0797 133.703 34.1697C133.57 34.2597 133.462 34.3829 133.391 34.5273C133.193 34.8384 133.074 35.1925 133.043 35.5595C132.982 36.3323 133.297 37.0941 133.827 37.3149C133.926 37.3559 134.033 37.3742 134.14 37.3684C134.247 37.3627 134.351 37.3331 134.445 37.2818C134.605 37.199 134.638 37.1162 134.627 37.1107Z" fill="#FF9A6C"/>
<path d="M163.839 25.8672C163.789 25.6451 163.659 25.4489 163.475 25.3152C163.051 25.0648 162.57 24.9297 162.078 24.9233C160.867 24.7623 159.708 24.3282 158.689 23.6537C159.086 23.5106 159.459 23.3057 159.793 23.0465C160.146 22.7874 160.422 22.4364 160.591 22.0316C160.759 21.6268 160.813 21.1836 160.748 20.7502C160.737 20.6693 160.709 20.5917 160.665 20.523C160.621 20.4542 160.563 20.3961 160.494 20.3527C160.251 20.2478 160.008 20.4631 159.815 20.6398C159.561 20.9123 159.238 21.1118 158.881 21.2176C158.524 21.3234 158.145 21.3316 157.784 21.2414C157.279 21.1496 156.802 20.9459 156.387 20.6453C156.371 20.6261 156.356 20.6058 156.343 20.5846L155.829 19.9332C154.56 18.3269 153.456 17.2008 152.23 16.5605C150.112 15.503 147.746 15.0431 145.386 15.2302C143.387 15.5227 141.466 16.8862 140.97 18.8513C139.987 17.808 138.359 17.6314 136.973 18.0122H136.94C135.405 18.371 134.39 19.8338 133.783 21.2911C133.749 21.3684 133.722 21.4512 133.689 21.5285C133.101 22.2694 132.344 22.8582 131.481 23.2452C131.332 23.3114 131.155 23.3942 131.122 23.5543C131.116 23.636 131.132 23.7177 131.168 23.7913C131.204 23.8649 131.258 23.9278 131.326 23.9738C131.661 24.2563 132.056 24.46 132.48 24.57C132.309 24.9161 132.106 25.2451 131.873 25.5526C131.674 25.812 131.442 26.1046 131.552 26.4358C131.606 26.5522 131.694 26.6493 131.804 26.7136C131.915 26.7778 132.043 26.8061 132.171 26.7946C132.425 26.7689 132.672 26.6899 132.894 26.5627L132.265 27.6667C132.79 27.819 133.344 27.8454 133.882 27.744C134.036 29.1847 133.976 31.8178 134.23 32.8114C135.234 32.9438 135.494 32.861 135.985 33.0874C136.62 33.3799 136.233 34.5226 137.133 34.2852C137.586 34.1693 138.447 32.5906 138.646 32.16C139.952 29.305 140.63 26.2027 140.633 23.063C141.321 22.4864 142.114 22.0478 142.968 21.7714L142.896 21.821C144.513 21.4622 146.335 21.131 147.732 22.0253C148.836 22.7263 149.354 23.9904 150.1 25.0392C150.725 25.9879 151.544 26.7932 152.503 27.4022C153.462 28.0112 154.539 28.4099 155.664 28.572C155.691 30.2777 155.443 33.0322 155.344 34.6109L157.044 31.6246C157.171 31.4534 157.281 31.2768 157.392 31.1057L157.425 31.0505C157.592 30.7586 157.777 30.4766 157.977 30.2059C158.146 30.3473 158.357 30.4282 158.577 30.4358C158.797 30.4434 159.013 30.3773 159.192 30.2479C159.37 30.1185 159.5 29.9333 159.561 29.7217C159.621 29.5101 159.61 29.2842 159.528 29.0798C159.417 28.8758 159.275 28.6897 159.108 28.5278C159.28 28.7341 159.501 28.8931 159.751 28.9897C160.002 29.0863 160.272 29.1173 160.538 29.0798C160.802 29.0302 161.043 28.8954 161.223 28.696C161.404 28.4967 161.514 28.2437 161.537 27.9758C161.537 27.7936 161.489 27.6147 161.398 27.4568C161.307 27.2989 161.176 27.1677 161.018 27.0761C161.703 27.2091 162.412 27.1361 163.055 26.8663C163.486 26.7007 163.944 26.3806 163.839 25.8672Z" fill="#263238"/>
<path d="M142.653 19.6738C142.437 19.8083 142.23 19.9577 142.035 20.1209C141.535 20.6046 141.168 21.2092 140.97 21.8763C140.821 22.3304 140.72 22.7983 140.666 23.2729C140.605 23.7862 140.583 24.3437 140.556 24.9289C140.539 25.5426 140.484 26.1547 140.39 26.7615C140.336 27.0833 140.259 27.4006 140.158 27.711C140.067 28.0443 139.895 28.3497 139.656 28.5997C139.546 28.697 139.414 28.7644 139.271 28.7953C139.127 28.8263 138.979 28.8197 138.839 28.7763C138.572 28.6919 138.34 28.5234 138.177 28.2961C137.922 27.8449 137.793 27.3344 137.801 26.8167L137.917 26.8443C137.702 27.2497 137.428 27.6216 137.106 27.9483C136.797 28.2489 136.383 28.4172 135.952 28.4175C135.757 28.4122 135.566 28.355 135.4 28.2519C135.243 28.1466 135.122 27.9966 135.052 27.8214C134.989 27.6601 134.968 27.4852 134.992 27.3135C135.016 27.1521 135.099 27.0051 135.223 26.8995L135.273 26.9602C134.899 27.3027 134.457 27.5623 133.976 27.722C133.81 27.7772 133.678 27.8048 133.589 27.8269C133.544 27.8341 133.497 27.8341 133.451 27.8269L133.584 27.7882C133.667 27.7606 133.799 27.7275 133.959 27.6668C134.427 27.4946 134.855 27.2299 135.218 26.8885L135.273 26.9437C135.168 27.0512 135.099 27.1885 135.076 27.3367C135.052 27.4849 135.075 27.6368 135.141 27.7717C135.208 27.9252 135.317 28.057 135.455 28.1525C135.611 28.2438 135.788 28.2932 135.969 28.2961C136.369 28.2889 136.752 28.129 137.039 27.849C137.35 27.5312 137.614 27.1706 137.823 26.7781L137.923 26.6125V26.8057C137.918 27.2998 138.042 27.7867 138.281 28.2188C138.428 28.4238 138.637 28.5751 138.878 28.6494C138.995 28.6878 139.121 28.6942 139.243 28.668C139.364 28.6418 139.476 28.584 139.568 28.5003C139.79 28.2662 139.95 27.9794 140.031 27.6668C140.132 27.364 140.209 27.054 140.263 26.7394C140.359 26.1366 140.416 25.5281 140.434 24.9178C140.467 24.3658 140.495 23.7807 140.556 23.2618C140.617 22.7793 140.726 22.3041 140.881 21.8432C141.089 21.1696 141.469 20.5623 141.985 20.0823C142.183 19.909 142.409 19.7708 142.653 19.6738Z" fill="#455A64"/>
<path d="M159.28 27.0485L159.23 27.0816L159.081 27.1699C159 27.2179 158.915 27.2585 158.827 27.2913C158.722 27.3355 158.606 27.3907 158.468 27.4349C157.682 27.6863 156.846 27.7394 156.034 27.5894C154.826 27.3693 153.706 26.8059 152.81 25.9665C151.734 24.9292 150.879 23.6841 150.298 22.3068C149.973 21.5837 149.747 20.855 149.426 20.1761C149.167 19.5143 148.814 18.8933 148.378 18.3324C147.982 17.83 147.468 17.4336 146.882 17.1787C146.615 17.0675 146.331 17.0022 146.043 16.9855C145.778 16.9689 145.512 16.9893 145.253 17.0462C144.805 17.14 144.381 17.3282 144.011 17.5982C143.733 17.8075 143.489 18.0589 143.288 18.3434C143.127 18.5944 142.999 18.8653 142.907 19.1493C142.907 19.1493 142.907 19.1493 142.907 19.0886L142.951 18.923C143.02 18.7099 143.115 18.506 143.233 18.3158C143.429 18.0196 143.674 17.7584 143.956 17.543C144.328 17.252 144.76 17.0465 145.22 16.9413C145.488 16.8832 145.763 16.8591 146.037 16.8696C146.336 16.8889 146.63 16.954 146.909 17.0628C147.53 17.3246 148.073 17.7407 148.488 18.2717C148.946 18.8338 149.318 19.4607 149.592 20.1319C149.884 20.8219 150.144 21.545 150.464 22.2626C151.028 23.622 151.857 24.8551 152.904 25.8893C153.781 26.7187 154.876 27.2816 156.061 27.5121C156.859 27.668 157.683 27.6282 158.463 27.3962C158.741 27.295 159.014 27.1789 159.28 27.0485Z" fill="#455A64"/>
<path d="M160.08 24.6694C160.01 24.7152 159.936 24.7541 159.859 24.7853C159.658 24.8795 159.449 24.9571 159.235 25.0171C158.918 25.1111 158.593 25.1794 158.264 25.2214C157.455 25.3177 156.634 25.2501 155.852 25.0226C155.533 24.9323 155.222 24.8141 154.924 24.6694C154.722 24.5728 154.529 24.4602 154.345 24.3326C154.272 24.2921 154.205 24.242 154.146 24.1836C154.146 24.1836 154.45 24.3602 154.963 24.581C155.26 24.7126 155.566 24.8214 155.879 24.9067C156.265 25.0066 156.658 25.0749 157.055 25.111C157.454 25.1443 157.854 25.1443 158.253 25.111C158.577 25.0783 158.898 25.021 159.213 24.9398C159.738 24.7908 160.08 24.6473 160.08 24.6694Z" fill="#455A64"/>
<path d="M147.478 40.9586C147.445 40.8151 146.512 41.0745 145.628 40.4563C144.745 39.8381 144.574 38.8003 144.442 38.8389C144.309 38.8776 144.32 39.1149 144.442 39.5345C144.584 40.0852 144.917 40.568 145.38 40.8979C145.826 41.2122 146.375 41.3427 146.915 41.2622C147.296 41.1905 147.5 41.0193 147.478 40.9586Z" fill="#263238"/>
<path d="M121.628 49.2067C120.499 48.7658 119.263 48.6748 118.082 48.9456C116.9 49.2163 115.828 49.8362 115.004 50.7247C112.072 53.8656 101.275 74.8582 99.8511 78.8215C97.5162 85.3351 102.556 90.9048 106.751 91.1311C110.946 91.3574 127.363 86.0803 127.363 86.0803L123.786 76.6632L113.298 77.4967L121.44 61.1796L121.628 49.2067Z" fill="#455A64"/>
<path d="M139.579 67.6862C139.579 67.6862 143.619 88.1654 145.54 89.8214C147.461 91.4774 162.652 98.2835 162.652 98.2835L167.206 90.8812L155.112 83.523L155.057 67.9732C154.93 63.5903 153.174 60.8414 151.165 59.373L139.579 67.6862Z" fill="#455A64"/>
<path d="M148.124 53.727L145.364 57.2653L143.685 52.8824L134.031 46.6172L131.216 49.3165C131.216 49.3165 120.391 49.5262 119.69 50.0561C118.133 51.2319 115.274 68.7634 115.274 68.7634L109.787 101.828C109.323 103.153 113.927 104.08 116.593 104.732L141.157 108.248C141.157 108.248 144.083 108.944 144.911 107.144C145.579 105.692 146.975 90.4239 148.389 82.0832C148.764 79.8752 149.101 71.9926 149.101 71.9926L151.833 59.799L148.874 57.591L148.124 53.727Z" fill="#455A64"/>
<path d="M117.112 69.9609C117.006 70.3613 116.85 70.7469 116.648 71.1091C116.323 71.8046 115.859 72.7651 115.335 73.7918C114.81 74.8185 114.314 75.768 113.949 76.4414C113.777 76.8184 113.558 77.1726 113.298 77.4957C113.413 77.0973 113.57 76.7123 113.767 76.3476C114.087 75.6521 114.551 74.6916 115.075 73.6649C115.6 72.6381 116.096 71.6942 116.461 71.0208C116.639 70.6449 116.857 70.2895 117.112 69.9609Z" fill="#263238"/>
<path d="M143.133 52.9916C142.836 53.3821 142.511 53.751 142.162 54.0956C141.533 54.7635 140.633 55.6964 139.573 56.7783L139.49 56.8611L139.391 56.7894C138.706 56.2705 137.967 55.6854 137.183 55.0506C135.488 53.6375 134.036 52.2906 133.015 51.2418C132.507 50.7339 132.104 50.3089 131.834 50.0053C131.68 49.8621 131.546 49.6987 131.437 49.5195C131.609 49.6386 131.768 49.7755 131.911 49.928L133.159 51.0983C134.208 52.0808 135.681 53.4222 137.371 54.8298C138.121 55.4591 138.855 56.0497 139.529 56.5796H139.352C140.429 55.5087 141.356 54.6035 142.018 53.9687C142.363 53.6134 142.736 53.2867 143.133 52.9916Z" fill="#263238"/>
<path d="M150.608 64.6621C150.59 66.1673 150.477 67.6699 150.271 69.1609C150.164 70.6633 149.957 72.157 149.653 73.6321C149.67 72.1251 149.783 70.6207 149.989 69.1278C150.096 67.6272 150.303 66.1353 150.608 64.6621Z" fill="#263238"/>
<path d="M161.653 88.3981C161.653 88.3981 164.667 83.3252 165.302 83.5294C165.937 83.7337 166.262 85.0419 165.881 86.0134C165.501 86.985 164.435 90.8821 164.435 90.8821L161.653 88.3981Z" fill="#FFBF9D"/>
<path d="M162.658 176.685L159.666 190.181C159.666 190.181 172.544 196.766 172.235 199.311L145.689 195.447L149.492 174.223L162.658 176.685Z" fill="#455A64"/>
<g opacity="0.6">
<path d="M151.717 187.537C151.448 187.57 151.2 187.7 151.021 187.904C150.842 188.107 150.744 188.37 150.746 188.641C150.768 188.915 150.896 189.169 151.101 189.351C151.307 189.533 151.575 189.629 151.85 189.618C152.134 189.584 152.395 189.446 152.583 189.231C152.772 189.016 152.874 188.739 152.871 188.453C152.818 188.177 152.662 187.931 152.434 187.766C152.207 187.601 151.924 187.529 151.645 187.565" fill="white"/>
</g>
<g opacity="0.6">
<path d="M145.689 195.443L146.076 193.301L171.578 197.938C171.828 198.118 172.028 198.358 172.161 198.636C172.294 198.913 172.356 199.22 172.34 199.527L145.689 195.443Z" fill="white"/>
</g>
<path d="M160.119 190.126C160.091 190.253 159.434 190.192 158.728 190.49C158.021 190.788 157.579 191.269 157.469 191.197C157.359 191.125 157.69 190.413 158.573 190.093C159.456 189.773 160.168 190.016 160.119 190.126Z" fill="#263238"/>
<path d="M162.674 191.782C162.674 191.909 162.084 192.025 161.543 192.489C161.002 192.952 160.776 193.51 160.649 193.477C160.522 193.444 160.571 192.704 161.25 192.141C161.929 191.578 162.691 191.655 162.674 191.782Z" fill="#263238"/>
<path d="M163.635 195.409C163.513 195.409 163.453 194.741 163.911 194.095C164.369 193.449 165.015 193.278 165.065 193.4C165.114 193.521 164.656 193.825 164.286 194.36C163.916 194.896 163.767 195.409 163.635 195.409Z" fill="#263238"/>
<path d="M160.461 186.973C160.384 187.083 159.826 186.796 159.086 186.708C158.347 186.62 157.739 186.752 157.695 186.625C157.651 186.498 158.275 186.145 159.147 186.255C160.019 186.366 160.544 186.885 160.461 186.973Z" fill="#263238"/>
<g opacity="0.3">
<path d="M162.062 179.356L161.532 181.762L148.593 179.256L148.974 177.07L162.062 179.356Z" fill="black"/>
</g>
<path d="M120.446 201.099L118.735 214.816C118.735 214.816 132.176 220.165 132.105 222.732L105.311 221.352L107.088 199.879L120.446 201.099Z" fill="#455A64"/>
<g opacity="0.6">
<path d="M110.576 212.928C110.314 212.985 110.08 213.136 109.921 213.352C109.761 213.569 109.686 213.836 109.71 214.104C109.755 214.37 109.9 214.608 110.116 214.769C110.332 214.93 110.601 215.003 110.869 214.97C111.149 214.912 111.398 214.751 111.566 214.52C111.734 214.288 111.811 214.002 111.78 213.717C111.701 213.447 111.522 213.216 111.278 213.074C111.035 212.931 110.746 212.887 110.472 212.95" fill="white"/>
</g>
<g opacity="0.6">
<path d="M105.311 221.353L105.493 219.189L131.315 221.397C131.582 221.555 131.805 221.776 131.965 222.041C132.125 222.306 132.216 222.606 132.232 222.915L105.311 221.353Z" fill="white"/>
</g>
<path d="M119.177 214.728C119.177 214.855 118.503 214.855 117.824 215.219C117.145 215.583 116.753 216.102 116.643 216.036C116.533 215.97 116.787 215.241 117.615 214.816C118.443 214.391 119.232 214.601 119.177 214.728Z" fill="#263238"/>
<path d="M121.876 216.13C121.876 216.257 121.324 216.429 120.822 216.942C120.319 217.455 120.148 218.046 120.021 218.007C119.894 217.969 119.872 217.245 120.496 216.622C121.12 215.998 121.887 216.003 121.876 216.13Z" fill="#263238"/>
<path d="M123.173 219.626C123.052 219.626 122.925 218.974 123.328 218.29C123.731 217.605 124.36 217.374 124.432 217.489C124.504 217.605 124.067 217.948 123.747 218.516C123.427 219.085 123.306 219.626 123.173 219.626Z" fill="#263238"/>
<path d="M119.232 211.549C119.171 211.665 118.586 211.433 117.846 211.416C117.107 211.4 116.505 211.582 116.45 211.466C116.395 211.35 117.002 210.914 117.857 210.958C118.713 211.002 119.298 211.455 119.232 211.549Z" fill="#263238"/>
<g opacity="0.3">
<path d="M120.104 203.816L119.801 206.262L106.685 204.976L106.862 202.768L120.104 203.816Z" fill="black"/>
</g>
<path d="M107.457 39.4767C108.079 33.8682 104.037 28.8171 98.4281 28.195C92.8195 27.5728 87.7685 31.6151 87.1463 37.2237C86.5241 42.8323 90.5664 47.8833 96.175 48.5054C101.784 49.1276 106.835 45.0853 107.457 39.4767Z" fill="#34786A"/>
<path d="M221.65 156.415L211.455 132.746L107.022 33.5566L93.2383 48.7863L197.119 147.224L221.65 156.415Z" fill="#34786A"/>
<g opacity="0.7">
<path d="M197.119 147.224C197.279 146.214 198.157 145.507 199.117 145.866C198.597 145.06 198.342 144.112 198.389 143.154C198.435 142.195 198.781 141.276 199.378 140.525C199.974 139.773 200.792 139.228 201.714 138.965C202.637 138.702 203.619 138.736 204.521 139.06C204.328 138.133 204.385 137.171 204.686 136.272C204.987 135.374 205.52 134.571 206.233 133.947C206.945 133.323 207.811 132.899 208.741 132.719C209.671 132.539 210.632 132.609 211.526 132.922L221.65 156.415L197.119 147.224Z" fill="white"/>
</g>
<path d="M217.549 146.894C217.549 146.894 212.741 145.79 211.604 152.651L221.65 156.416L217.549 146.894Z" fill="#263238"/>
<path opacity="0.3" d="M204.521 139.06L100.972 41.5933L107.485 34.0254L211.454 132.745L211.526 132.922C210.779 132.655 209.98 132.564 209.191 132.657C208.152 132.777 207.168 133.191 206.354 133.849C205.363 134.656 204.7 135.796 204.488 137.056C204.375 137.72 204.386 138.4 204.521 139.06Z" fill="black"/>
<path opacity="0.3" d="M199.117 145.866L94.977 46.9199L93.2493 48.9237L197.119 147.18C197.162 146.779 197.352 146.408 197.653 146.139C197.954 145.871 198.344 145.724 198.748 145.728C198.875 145.762 198.999 145.809 199.117 145.866Z" fill="black"/>
<path d="M210.003 140.535C209.98 140.492 209.948 140.454 209.91 140.424C209.872 140.394 209.829 140.371 209.782 140.358C209.649 140.32 209.507 140.332 209.384 140.394C209.26 140.455 209.164 140.56 209.114 140.689C208.98 141.113 208.98 141.568 209.114 141.992C209.179 142.257 209.326 142.495 209.534 142.671C209.645 142.771 209.78 142.841 209.926 142.874C210.072 142.907 210.224 142.901 210.367 142.859C210.52 142.794 210.657 142.699 210.77 142.578C210.883 142.457 210.97 142.314 211.024 142.158C211.159 141.814 211.245 141.454 211.278 141.087C211.378 140.275 211.309 139.452 211.074 138.669C211.017 138.462 210.918 138.27 210.782 138.104C210.646 137.939 210.476 137.804 210.284 137.708C210.074 137.636 209.849 137.617 209.629 137.653C209.41 137.689 209.203 137.778 209.026 137.913C208.681 138.245 208.406 138.642 208.216 139.082C208.026 139.522 207.926 139.995 207.922 140.474C207.846 141.408 208.028 142.344 208.449 143.182C208.869 144.019 209.512 144.724 210.306 145.221C210.486 145.317 210.686 145.37 210.89 145.377C211.094 145.384 211.296 145.343 211.482 145.26C211.832 145.083 212.134 144.826 212.365 144.509C212.788 143.934 213.123 143.3 213.359 142.627C213.702 141.646 213.849 140.606 213.79 139.569C213.762 139.199 213.723 138.917 213.69 138.73C213.657 138.542 213.646 138.437 213.646 138.437C213.748 138.798 213.814 139.167 213.845 139.541C213.926 140.589 213.793 141.643 213.453 142.638C213.219 143.324 212.884 143.972 212.459 144.559C212.217 144.893 211.9 145.166 211.532 145.354C211.329 145.446 211.107 145.49 210.884 145.483C210.661 145.477 210.443 145.419 210.246 145.315C209.424 144.81 208.759 144.087 208.324 143.226C207.888 142.366 207.699 141.402 207.778 140.441C207.813 139.938 207.923 139.443 208.104 138.972C208.269 138.503 208.564 138.09 208.954 137.78C209.149 137.63 209.378 137.531 209.621 137.493C209.864 137.454 210.113 137.477 210.345 137.559C210.555 137.661 210.741 137.807 210.89 137.987C211.039 138.167 211.146 138.377 211.206 138.603C211.444 139.406 211.512 140.25 211.405 141.081C211.371 141.461 211.28 141.833 211.134 142.185C211.073 142.355 210.977 142.511 210.851 142.641C210.726 142.772 210.574 142.874 210.406 142.941C210.246 142.985 210.079 142.988 209.918 142.951C209.757 142.913 209.608 142.836 209.484 142.726C209.267 142.532 209.114 142.276 209.048 141.992C208.92 141.551 208.936 141.082 209.092 140.651C209.15 140.514 209.256 140.403 209.391 140.341C209.526 140.279 209.679 140.269 209.821 140.314C209.986 140.408 210.003 140.54 210.003 140.535Z" fill="white"/>
<path d="M207.337 150.817C207.337 150.817 207.464 150.552 207.591 150.044C207.757 149.32 207.775 148.569 207.646 147.836C207.446 146.755 207.12 145.701 206.674 144.696C206.106 143.46 205.744 142.14 205.603 140.787C205.542 139.413 205.888 138.052 206.597 136.874C207.177 135.918 207.985 135.121 208.949 134.555C209.592 134.172 210.296 133.899 211.03 133.749C211.296 133.69 211.568 133.655 211.841 133.645L211.637 133.683C211.499 133.683 211.295 133.738 211.041 133.799C210.32 133.973 209.631 134.258 208.998 134.644C208.057 135.212 207.271 136.002 206.707 136.945C206.02 138.101 205.686 139.433 205.747 140.776C205.885 142.113 206.239 143.418 206.796 144.64C207.24 145.656 207.559 146.722 207.745 147.814C207.863 148.549 207.829 149.301 207.646 150.022C207.579 150.3 207.475 150.567 207.337 150.817Z" fill="white"/>
<path d="M201.646 149.041C202.108 148.812 202.468 148.418 202.656 147.937C203.03 146.74 203.217 145.493 203.208 144.239C203.238 142.984 203.153 141.73 202.954 140.491C202.876 140.016 202.799 139.635 202.75 139.387C202.712 139.251 202.688 139.113 202.678 138.973C202.678 138.973 202.727 139.116 202.805 139.376C202.882 139.635 202.965 140.016 203.053 140.48C203.407 142.409 203.451 144.382 203.186 146.325C203.125 146.894 202.986 147.451 202.772 147.981C202.621 148.342 202.373 148.654 202.054 148.881C201.929 148.959 201.79 149.014 201.646 149.041Z" fill="white"/>
<path d="M199.962 139.943C200.096 140.193 200.203 140.455 200.282 140.727C200.526 141.379 200.62 142.077 200.558 142.77C200.528 143.12 200.42 143.459 200.242 143.763C200.065 144.066 199.822 144.327 199.531 144.525C199.353 144.641 199.155 144.721 198.946 144.762C198.803 144.79 198.72 144.762 198.72 144.762C198.988 144.691 199.244 144.578 199.476 144.426C199.743 144.226 199.965 143.973 200.126 143.682C200.288 143.39 200.386 143.068 200.415 142.736C200.471 142.066 200.394 141.39 200.188 140.749C200.097 140.485 200.021 140.216 199.962 139.943Z" fill="white"/>
<path d="M210.588 152.353L210.544 152.237C210.516 152.16 210.472 152.049 210.433 151.906C210.374 151.728 210.348 151.541 210.356 151.354C210.386 151.103 210.475 150.863 210.615 150.653C210.954 150.112 211.323 149.59 211.719 149.09C212.167 148.454 212.562 147.782 212.901 147.081C213.499 145.797 213.992 144.466 214.375 143.101C214.513 142.649 214.634 142.24 214.744 141.865C214.783 141.71 214.833 141.559 214.893 141.412C214.874 141.571 214.842 141.727 214.8 141.881C214.728 142.174 214.617 142.604 214.474 143.129C214.113 144.509 213.629 145.854 213.028 147.147C212.688 147.856 212.286 148.532 211.824 149.168C211.394 149.753 210.963 150.239 210.687 150.702C210.563 150.872 210.478 151.069 210.441 151.276C210.404 151.484 210.414 151.697 210.472 151.9C210.521 152.048 210.56 152.199 210.588 152.353Z" fill="white"/>
<path d="M102.817 29.2603L88.2891 43.8742C88.085 44.0796 88.0859 44.4116 88.2913 44.6158L92.7973 49.0951C93.0027 49.2992 93.3347 49.2983 93.5389 49.0929L108.066 34.4789C108.271 34.2735 108.27 33.9415 108.064 33.7373L103.558 29.2581C103.353 29.0539 103.021 29.0549 102.817 29.2603Z" fill="#E0E0E0"/>
<path d="M108.07 34.4849C108.097 34.4458 108.121 34.4053 108.142 34.3634C108.174 34.3018 108.194 34.2342 108.198 34.1648C108.203 34.0955 108.193 34.0259 108.17 33.9605C108.115 33.7838 107.899 33.6513 107.712 33.4471L107.022 32.7792L105.134 30.941L103.958 29.8094L103.643 29.4948C103.558 29.387 103.446 29.3033 103.318 29.2519C103.257 29.2336 103.192 29.229 103.129 29.2386C103.066 29.2481 103.006 29.2715 102.953 29.3071C102.86 29.3789 102.738 29.5224 102.628 29.6273C98.9735 33.3201 93.9503 38.3985 88.3972 43.9793C88.3336 44.0433 88.2948 44.1278 88.2877 44.2178C88.2806 44.3078 88.3057 44.3974 88.3586 44.4705C88.4855 44.6196 88.6898 44.8073 88.8554 44.9729L89.8876 45.9996L91.8969 48.0254L92.8794 49.0025C92.9359 49.0665 93.0118 49.1103 93.0955 49.1272C93.1792 49.1442 93.2662 49.1333 93.3431 49.0963C93.3793 49.0769 93.4127 49.0528 93.4425 49.0245L93.5639 48.9031L93.8013 48.6658L95.656 46.8055L102.12 40.3581L106.475 36.0415L107.64 34.8768L107.955 34.5842L108.07 34.4849C108.044 34.5273 108.013 34.5663 107.977 34.6008L107.679 34.9209L106.536 36.1188L102.247 40.5017C100.42 42.3454 98.2559 44.5368 95.8547 46.9711C95.253 47.5783 94.6403 48.2021 94.0055 48.8369L93.7681 49.0742L93.6522 49.1957C93.6005 49.2471 93.5409 49.29 93.4756 49.3226C93.3467 49.3852 93.2011 49.4051 93.0602 49.3792C92.9192 49.3534 92.7901 49.2833 92.6917 49.1791L91.7092 48.2021L89.6944 46.2038L88.6621 45.1771C88.4855 44.9949 88.3254 44.8569 88.1101 44.6251C88.0203 44.4956 87.9783 44.3388 87.9914 44.1817C88.0045 44.0245 88.0718 43.8769 88.1819 43.764L102.473 29.4506C102.586 29.3298 102.706 29.2155 102.832 29.1084C102.913 29.0558 103.004 29.0217 103.099 29.0083C103.195 28.9949 103.292 29.0027 103.384 29.0311C103.539 29.0966 103.675 29.199 103.781 29.3292L104.091 29.6438L105.25 30.8141L107.104 32.6909L107.778 33.3753C107.96 33.5851 108.17 33.7231 108.231 33.9273C108.252 33.9999 108.258 34.0761 108.248 34.1511C108.239 34.2261 108.214 34.2984 108.175 34.3634C108.152 34.4126 108.116 34.4545 108.07 34.4849Z" fill="#263238"/>
<path d="M90.0422 42.3281C91.0015 43.0509 91.9022 43.8483 92.736 44.7128C93.6376 45.5111 94.4755 46.3785 95.2421 47.3072C94.278 46.5861 93.3735 45.7886 92.5373 44.9225C91.639 44.1243 90.8048 43.2568 90.0422 42.3281Z" fill="#263238"/>
<path d="M95.4021 36.5879C96.4063 37.3259 97.3649 38.1241 98.2725 38.9781C99.239 39.7588 100.16 40.5936 101.032 41.4786C99.9782 40.8142 98.991 40.0488 98.0848 39.1933C97.1117 38.4099 96.2136 37.5377 95.4021 36.5879Z" fill="#263238"/>
<path d="M107.248 35.2521C106.265 34.5326 105.342 33.7351 104.488 32.8675C103.56 32.0695 102.697 31.2002 101.905 30.2676C102.885 30.9914 103.808 31.7905 104.665 32.6577C105.591 33.4547 106.455 34.3221 107.248 35.2521Z" fill="#263238"/>
<path d="M140.605 67.0297C140.605 67.0297 135.687 67.5817 134.213 67.7694C132.739 67.9571 130.758 68.3821 130.068 69.5523C129.786 70.0271 125.475 76.3364 125.475 76.3364L123.819 76.8001L126.452 84.0423L130.907 81.8343C130.907 81.8343 132.419 80.1342 133.628 78.5223C134.837 76.9105 135.201 76.3143 135.201 76.3143C135.201 76.3143 139.617 76.5186 140.506 75.7623C140.645 75.6053 140.737 75.4118 140.77 75.2045C140.803 74.9973 140.777 74.7848 140.694 74.5921L135.891 74.1726C135.891 74.1726 141.113 74.1726 141.963 73.5819C142.035 73.5308 142.103 73.4755 142.168 73.4163C142.276 73.2997 142.349 73.1537 142.376 72.9964C142.403 72.8391 142.383 72.6774 142.319 72.5312C142.255 72.385 142.149 72.2608 142.016 72.1738C141.882 72.0868 141.725 72.041 141.566 72.0419L135.941 72.0032C135.941 72.0032 142.399 71.4181 142.565 70.695C142.587 70.5782 142.602 70.4602 142.609 70.3417C142.616 70.2323 142.6 70.1226 142.562 70.0198C142.524 69.917 142.465 69.8233 142.389 69.7447C142.312 69.6661 142.22 69.6045 142.118 69.5638C142.016 69.523 141.907 69.5041 141.798 69.5082L136.526 69.6738C136.526 69.6738 141.627 68.8623 141.676 68.1447C141.776 66.7923 140.605 67.0297 140.605 67.0297Z" fill="#FFBF9D"/>
<path d="M107.276 81.0238C107.958 80.0296 108.852 79.1985 109.893 78.5897C110.934 77.981 112.097 77.6095 113.298 77.502L124.029 76.3594L127.241 86.4058L111.83 90.4188" fill="#455A64"/>
<path d="M111.83 90.4187C111.92 90.3706 112.017 90.3353 112.117 90.3139L112.967 90.071L116.163 89.1988L127.203 86.2732L127.109 86.4499L125.183 80.4441C124.741 79.0586 124.31 77.6841 123.891 76.4035L124.04 76.5028L116.941 77.237L113.894 77.5516C113.021 77.598 112.157 77.7614 111.327 78.0374C110.14 78.4394 109.06 79.1078 108.17 79.9915C107.552 80.6207 107.303 81.0403 107.276 81.0237C107.328 80.9178 107.389 80.8163 107.458 80.7201C107.651 80.4394 107.865 80.1737 108.098 79.9252C108.975 78.9953 110.062 78.2877 111.267 77.8607C112.107 77.5629 112.983 77.3773 113.872 77.3087L116.914 76.972L124.012 76.1992H124.128L124.161 76.3096C124.581 77.6068 125.011 78.9592 125.453 80.3447C126.126 82.4479 126.772 84.4737 127.368 86.3505L127.413 86.494L127.275 86.5271L116.235 89.3534L113.022 90.1483L112.155 90.3525C112.049 90.3852 111.94 90.4074 111.83 90.4187Z" fill="#263238"/>
<path d="M164.816 88.2259C164.816 88.2259 167.902 87.1716 168.719 87.7291C169.228 88.0913 169.614 88.6022 169.823 89.1919C169.823 89.1919 171.71 89.1919 171.147 91.1736C171.147 91.1736 172.803 91.5103 172.301 93.4368C172.301 93.4368 173.515 93.4037 172.936 95.0045C172.356 96.6053 169.878 99.7848 169.309 100.21C168.133 101.099 167.808 99.6909 168.095 99.1058C168.382 98.5207 170.016 95.4957 170.016 95.4957C170.016 95.4957 167.206 99.9117 166.257 99.1776C165.705 98.7581 165.832 98.1067 166.549 96.8095C167.046 95.9097 167.957 94.1323 167.957 94.1323L165.749 96.8592C165.658 96.9753 165.535 97.0626 165.395 97.1105C165.255 97.1585 165.104 97.1651 164.961 97.1295C164.818 97.094 164.688 97.0178 164.586 96.9101C164.485 96.8024 164.417 96.6678 164.391 96.5225C164.351 96.2416 164.39 95.9552 164.501 95.6945C164.958 94.6509 165.513 93.6528 166.157 92.7137L164.363 94.4745C164.268 94.5689 164.154 94.6421 164.029 94.6895C163.903 94.7369 163.769 94.7573 163.636 94.7495C163.502 94.7417 163.371 94.7058 163.252 94.6442C163.133 94.5825 163.028 94.4965 162.945 94.3917C162.821 94.2524 162.741 94.079 162.716 93.894C162.692 93.709 162.723 93.5209 162.807 93.354C163.298 92.3659 166.036 89.49 166.036 89.49L164.816 88.2259Z" fill="#FFBF9D"/>
<path d="M111.653 102.723C111.653 102.723 109.092 115.584 111.697 121.187C114.303 126.79 121.136 129.467 128.257 131.675C137.757 134.584 154.174 143.62 154.174 143.62C154.174 143.62 152.048 153.004 150.646 158.591C149.299 163.973 145.535 183.563 145.535 183.563L162.807 185.948L175.122 141.628C175.122 141.628 178.561 132.525 171.087 128.01C164.684 124.146 142.041 108.855 142.041 108.855L140.285 104.798L111.653 102.723Z" fill="#263238"/>
<path d="M111.968 118.035L115.18 125.404L110.808 160.401C110.808 160.401 107.066 171.905 106.238 177.977C105.41 184.049 103.583 208.502 103.583 208.502H120.513C120.513 208.502 123.14 178.75 128.241 169.813C132.243 162.775 134.958 150.526 135.124 149.725C135.29 148.925 141.196 129.301 141.196 129.301L132.916 112.283L111.968 118.035Z" fill="#263238"/>
<path d="M160.135 139.518C159.044 140.054 157.982 140.649 156.956 141.301C155.993 142.037 155.072 142.826 154.196 143.663C154.36 143.338 154.579 143.043 154.841 142.791C155.433 142.146 156.094 141.568 156.812 141.069C157.53 140.567 158.302 140.149 159.114 139.821C159.435 139.663 159.78 139.56 160.135 139.518Z" fill="#455A64"/>
<path d="M162.796 185.941L162.492 185.913L161.603 185.803L158.175 185.356L145.513 183.656H145.408V183.551C146.385 178.434 147.555 172.345 148.946 165.578C149.294 163.883 149.658 162.15 150.05 160.383L151.314 154.979C152.181 151.308 153.075 147.5 153.991 143.591L154.063 143.746C152.799 143.056 151.43 142.333 150.05 141.61C146.186 139.601 142.41 137.746 138.695 136.013C135.143 134.333 131.486 132.882 127.749 131.668C124.161 130.564 120.766 129.322 117.863 127.622C116.45 126.82 115.15 125.832 113.999 124.685C112.938 123.619 112.084 122.365 111.482 120.987C110.984 119.716 110.677 118.379 110.571 117.018C110.51 116.378 110.455 115.754 110.449 115.152C110.444 114.551 110.449 113.96 110.449 113.392C110.486 111.457 110.624 109.526 110.863 107.607C111.051 106.028 111.25 104.808 111.415 103.985C111.493 103.577 111.553 103.268 111.598 103.047C111.642 102.826 111.669 102.732 111.669 102.732C111.669 102.732 111.669 102.843 111.625 103.053C111.581 103.262 111.542 103.605 111.476 103.991C111.349 104.819 111.167 106.044 110.996 107.623C110.825 109.202 110.654 111.139 110.632 113.397C110.632 113.949 110.632 114.545 110.665 115.141C110.698 115.738 110.731 116.361 110.797 116.996C110.908 118.337 111.217 119.654 111.714 120.904C112.31 122.256 113.154 123.485 114.203 124.525C115.343 125.655 116.627 126.627 118.023 127.418C120.91 129.074 124.288 130.305 127.871 131.414C131.621 132.624 135.29 134.074 138.855 135.753C142.576 137.464 146.379 139.347 150.227 141.356C151.612 142.079 152.987 142.802 154.245 143.498L154.345 143.547L154.317 143.652C153.395 147.566 152.495 151.38 151.629 155.045L150.359 160.444C149.956 162.205 149.592 163.938 149.255 165.627C147.853 172.389 146.661 178.478 145.656 183.589L145.573 183.473L158.22 185.262L161.642 185.759L162.531 185.891C162.696 185.913 162.796 185.941 162.796 185.941Z" fill="#455A64"/>
</svg>
